PathFileType	4	(X/Y/Z)	Patient4_TMGait_0pt2_03_right_08.trc.trc
DataRate	CameraRate	NumFrames	NumMarkers	Units	OrigDataRate	OrigDataStartFrame	OrigNumFrames
46.979865771812	46.979865771812	6	33	mm	46.979865771812	106	       141
Frame#	Time	Sacral			L.Shoulder			Chest			R.Shoulder			Neck			R.ASIS			L.ASIS			R.Thigh.Superior			R.Thigh.Lateral			R.Thigh.Inferior			R.Patella			L.Thigh.Superior			L.Thigh.Lateral			L.Thigh.Inferior			L.Patella			L.Shank.Superior			L.Shank.Lateral			L.Shank.Inferior			R.Shank.Superior			R.Shank.Lateral			R.Shank.Inferior			R.Heel			R.Midfoot.Superior			R.Midfoot.Lateral			R.Toe			L.Heel			L.Midfoot.Lateral			L.Midfoot.Superior			L.Toe			L.Elbow			L.Wrist			R.Elbow			R.Wrist			
		X1	Y1	Z1	X2	Y2	Z2	X3	Y3	Z3	X4	Y4	Z4	X5	Y5	Z5	X6	Y6	Z6	X7	Y7	Z7	X8	Y8	Z8	X9	Y9	Z9	X10	Y10	Z10	X11	Y11	Z11	X12	Y12	Z12	X13	Y13	Z13	X14	Y14	Z14	X15	Y15	Z15	X16	Y16	Z16	X17	Y17	Z17	X18	Y18	Z18	X19	Y19	Z19	X20	Y20	Z20	X21	Y21	Z21	X22	Y22	Z22	X23	Y23	Z23	X24	Y24	Z24	X25	Y25	Z25	X26	Y26	Z26	X27	Y27	Z27	X28	Y28	Z28	X29	Y29	Z29	X30	Y30	Z30	X31	Y31	Z31	X32	Y32	Z32	X33	Y33	Z33	

106	19.285000000000	722.123175274307	994.253760194483	396.928501119725	925.652527534660	1424.397807013304	235.381079922814	1002.703682323564	1354.397539598999	408.493203604202	898.085282906958	1424.957637842172	570.881716619801	878.457270104660	1485.789826225187	390.563662419663	941.978142642308	937.581214276387	535.975274874046	952.937068445851	951.242606852031	261.182201024662	1022.211021794170	756.581807773249	514.425149123520	970.187564931474	641.397262933306	591.384414858197	1059.542462431201	591.879396302286	518.957521820738	1070.253761521563	482.172510463605	549.516377170455	1009.776623188054	743.871362689236	300.403044252941	930.669677529615	610.760070060309	236.885866018988	1021.515664083874	550.119983183384	314.009650160583	1025.708578010276	477.475130593880	325.823247524849	988.333420431908	401.307121177997	318.823412129996	891.576346422853	296.540094680189	260.454414299661	915.956120712188	183.258778341184	338.942074141924	993.226792354382	409.597398120087	563.377084914471	874.141496610198	376.838296828787	633.666407576247	854.416798405328	264.394938089026	592.409719657590	648.806051500928	207.020754556065	583.093176137722	819.631109961136	145.839998811730	615.227167050947	711.714942052709	147.705337662263	653.601250310382	884.142617151183	33.643992779323	638.049315859596	768.182883127711	38.445161541368	371.747996239741	846.121209970177	34.933608212476	294.798897004235	928.681642300863	94.962088209583	327.245332024288	1058.189845522410	41.887711827638	304.070219032820	1017.616902501996	1091.009443332964	100.743482869988	1229.110083304236	937.790122091976	124.302019105579	794.840240055045	1084.982798406765	668.473047667015	797.301263045726	822.700221579916	680.329958581117	
107	19.306285714286	722.092418492672	996.363670937914	394.033338985665	929.626522028317	1425.758984670377	234.841259704134	1003.389832172934	1356.065699579100	409.365807435927	896.004980848336	1427.471425885003	569.649602170008	879.738604974747	1487.351067054823	389.277417367020	940.021076675018	939.647360068899	536.135514097421	954.471146613508	952.571738096268	261.583381144264	1022.327418209712	760.784866700681	513.814738417497	972.061388025728	644.952344799920	591.094680640408	1061.693589616343	596.479983447328	518.413961518053	1074.698836666797	487.620602070311	548.997289235964	1008.114945683785	743.476896333673	300.500901284557	927.359614964196	611.623874567446	236.200953345382	1016.614839780037	549.810827663289	313.905054622284	1019.844571079877	477.582209009885	325.831212098457	982.802928512766	401.744284817603	318.563166450689	886.625574093367	296.624660769444	260.011634472806	911.159967140675	183.520321114300	338.773024560453	1000.059517463761	413.212883704954	562.958956738179	882.762044328569	376.332148850530	633.343611818309	867.193836857897	263.555621829074	592.025041600008	664.716740839134	197.678914736746	583.015556504241	837.339247829871	145.115148433485	614.889851579338	730.138824999438	142.180754576388	653.740634333399	906.568933636126	35.841894153409	638.063171181222	763.803096603226	38.415606068328	371.649331461648	841.788222564404	34.898062640290	294.698282982167	924.329982985866	94.969075102280	327.120892163950	1053.852980138428	41.943333885824	304.054123709874	1025.732913453560	1094.841170082573	98.789461493323	1244.509674122379	952.680784019942	124.099345860861	776.248892345070	1094.269183703028	666.219296284114	763.586530781954	832.257575049121	679.003044062918	
108	19.327571428571	722.189604297481	999.058804229367	391.499996437332	933.714019536371	1427.482901569920	234.579691230498	1004.146438984778	1358.238480565522	410.488456471997	894.110783916709	1430.736036480552	568.549399267411	881.066780758189	1489.355905881886	388.158875042511	937.983525981311	942.164847074262	536.820298324681	956.034419762114	954.257685094056	262.588752515952	1021.385217197748	764.722359283817	514.046992311384	972.101363724578	648.568371847658	591.588516137002	1061.745834313061	600.702853542606	518.759654550151	1076.891798140952	493.247895628984	549.192718178855	1005.949697809635	743.246906418745	301.163677698125	923.336235560335	612.916242932391	235.752866866415	1010.772850080180	549.692036995138	314.023915949671	1012.861857298989	477.945896564547	325.973409656372	976.409108152188	402.545177320093	318.359070770269	881.040760294719	296.885873053310	259.630065910474	906.057026528477	183.970286837335	338.608472640221	1005.580871703683	416.864206453019	563.344917260973	891.116844955701	374.509622530382	634.058340923387	881.138890708884	261.551471745113	592.603001112832	683.334088903405	184.570431414009	584.153077100859	857.877486625218	143.207694908377	615.574999410262	751.875628312681	134.041442538788	655.023593707446	933.090708080323	38.688097755753	638.997662412914	759.418825966812	38.385598611014	371.561905128384	837.445537260255	34.867148680635	294.609326205803	919.967989398075	94.988822126644	326.991241361528	1049.508478315069	42.006962693919	304.041317459855	1033.833326822480	1099.186817334498	97.176142338072	1259.442248864735	968.827398722192	124.123300195649	759.066765462496	1104.790137020293	664.156507967161	733.954810583824	843.885536458340	677.312534416922	
109	19.348857142857	722.385406686066	1002.151393277185	389.360159310770	937.867708836251	1429.402701433305	234.574459471029	1004.983971738364	1360.718218851913	411.806221588171	892.493629708121	1434.523410675602	567.595622722319	882.455644670885	1491.637632742251	387.208524386767	935.883974851049	944.954592021668	537.989380572783	957.564758865575	956.135043260578	264.141648622998	1019.435055033944	768.165555970909	515.126874798769	970.345898851268	652.015172589123	592.856423000921	1059.770793850990	604.309596685986	519.987720670078	1076.866618470210	498.813313485558	550.076430557372	1003.349796361147	743.124220288335	302.358464839503	918.772338787570	614.517580610602	235.542021234233	1004.222855413692	549.713406722101	314.348850705370	1005.034562473981	478.494272426629	326.229322073313	969.387082395871	403.617976651082	318.207978620882	874.982434778480	297.285825036386	259.319336468793	900.734018038035	184.558727379753	338.456920318346	1009.796090921352	420.428100794951	564.513161043974	899.266869361063	371.500240649596	635.804622828632	896.135484663682	258.644171312549	594.140081213843	704.647416674330	168.572962906403	586.475456288665	880.943743160429	140.422971747138	617.270414240050	776.674801414198	123.926579689667	657.380307270831	963.006967038573	42.212034920721	640.801620837497	755.040577699317	38.358039718425	371.489080427118	833.099827149573	34.842045554979	294.535124881796	915.606579673939	95.015569035128	326.865684962175	1045.164950025823	42.062673191677	304.031794590756	1041.966641022155	1103.883003144121	95.945360633491	1273.876045881853	986.039835163803	124.412649981169	743.624227273056	1116.008121558694	662.226876286869	708.527839990955	856.587141602906	675.257073315592	
110	19.370142857143	722.651507015456	1005.430116520137	387.660706309662	942.020565418846	1431.339295375232	234.812036191046	1005.907533989167	1363.291394950932	413.272299186348	891.234373968029	1438.578459270062	566.820728279744	883.913215377632	1494.015095137031	386.441463536357	933.760391188991	947.814645130083	539.591208836730	959.005543336280	958.031676969826	266.166413874401	1016.574475738517	770.915777078005	517.021315062337	966.925379315546	655.079528055356	594.856422091086	1055.941758349224	607.112491507244	522.043932065132	1074.761261202160	504.090849692856	551.582614677017	1000.407709940857	743.043625787760	304.033157982837	913.860966383548	616.294059607901	235.568113264894	997.224998405226	549.814114015851	314.858276546987	996.668520267552	479.146791990515	326.579904865932	961.991402539437	404.857735266136	318.110913024770	868.624620910554	297.780203287558	259.090577859788	895.284639705784	185.229833296947	338.327938645009	1012.751470278194	423.801114353381	566.387040090353	907.237437864075	367.526095199320	638.489692734800	911.945693389805	255.177584106846	596.538560307660	728.400038017946	150.781340100747	589.833131740276	906.031401140400	137.138411294909	619.839568598409	804.036927569114	112.600085520208	660.607457634023	995.362905286367	46.397944673059	643.261144947836	750.676604047374	38.334734050682	371.433677612610	828.756766274653	34.823210346976	294.477858091335	911.254361332102	95.043674134027	326.752569730491	1040.828923389610	42.098366291087	304.025256383757	1050.158048442040	1108.754853712223	95.135238399949	1287.756613745716	1004.080157987203	124.999699409503	730.176263403294	1127.351768103563	660.405347665782	687.268603210289	869.446532410833	672.858878008420	
111	19.391428571429	722.966083685421	1008.681294865868	386.458257575630	946.088635388508	1433.122147117659	235.289109419651	1006.915334408331	1365.753748663958	414.853465055690	890.393914690626	1442.645447201035	566.273225808742	885.438215200406	1496.312567009561	385.887684570379	931.669711551942	950.541083037487	541.568585953182	960.316816992625	959.788646106130	268.576548961038	1012.950690013850	772.826709208782	519.663980814282	962.063291889439	657.582499170251	597.512249233346	1050.537683130516	608.995019459024	524.830052667367	1070.820783184837	508.886972576376	553.613754939299	997.236599837826	742.940280719503	306.118250779388	908.797426798960	618.114832964511	235.828230868993	990.040164686317	549.930404472361	315.526432914474	988.070551885204	479.824546021254	327.007687262301	954.469485423857	406.158515538274	318.071884401187	862.137349792051	298.323812999892	258.953599853321	889.799783386122	185.928177134991	338.230277927634	1014.533521454158	426.899551202309	568.843013899541	914.997961454061	362.870566727760	641.936243410817	928.209998117882	251.523413423430	599.614478282195	754.060803174062	132.382164484730	593.958969922944	932.440986459181	133.735740842224	623.037253541180	833.209736800421	100.853758744687	664.386382223446	1029.009555207201	51.150066305206	646.038646232671	746.331706191132	38.316046766986	371.397519878902	824.420276145810	34.810106012753	294.438428793783	906.916556912889	95.068160447596	326.658109215165	1036.504141662375	42.106771750288	304.021232036899	1058.400455488554	1113.633074367673	94.777804158398	1301.003042238325	1022.674907238203	125.908784298321	718.890510999024	1138.264455486272	658.708280268641	670.020189006680	881.678603197443	670.168589222392	
